<svg width="25" height="24" viewBox="0 0 25 24" fill="none" xmlns="http://www.w3.org/2000/svg">
<path d="M20.6701 8.43676L11.0701 18.0368C10.9865 18.1207 10.8871 18.1872 10.7778 18.2327C10.6684 18.2781 10.5511 18.3015 10.4326 18.3015C10.3142 18.3015 10.1969 18.2781 10.0875 18.2327C9.97808 18.1872 9.87873 18.1207 9.79512 18.0368L5.59512 13.8368C5.5114 13.753 5.44499 13.6537 5.39968 13.5443C5.35437 13.4349 5.33105 13.3177 5.33105 13.1993C5.33105 13.0809 5.35437 12.9636 5.39968 12.8542C5.44499 12.7449 5.5114 12.6455 5.59512 12.5618C5.67883 12.478 5.77822 12.4116 5.8876 12.3663C5.99699 12.321 6.11422 12.2977 6.23262 12.2977C6.35101 12.2977 6.46825 12.321 6.57763 12.3663C6.68701 12.4116 6.7864 12.478 6.87012 12.5618L10.4334 16.125L19.3966 7.16326C19.5657 6.99419 19.795 6.8992 20.0341 6.8992C20.2732 6.8992 20.5025 6.99419 20.6716 7.16326C20.8407 7.33234 20.9357 7.56165 20.9357 7.80076C20.9357 8.03987 20.8407 8.26919 20.6716 8.43826L20.6701 8.43676Z" fill="white"/>
</svg>
