<svg width="25" height="24" viewBox="0 0 25 24" fill="none" xmlns="http://www.w3.org/2000/svg">
<path d="M20.3367 8.43676L10.7367 18.0368C10.6531 18.1207 10.5538 18.1872 10.4444 18.2327C10.335 18.2781 10.2177 18.3015 10.0992 18.3015C9.98079 18.3015 9.8635 18.2781 9.75411 18.2327C9.64471 18.1872 9.54535 18.1207 9.46174 18.0368L5.26174 13.8368C5.17802 13.753 5.11162 13.6537 5.06631 13.5443C5.021 13.4349 4.99768 13.3177 4.99768 13.1993C4.99768 13.0809 5.021 12.9636 5.06631 12.8542C5.11162 12.7449 5.17802 12.6455 5.26174 12.5618C5.34546 12.478 5.44485 12.4116 5.55423 12.3663C5.66361 12.321 5.78085 12.2977 5.89924 12.2977C6.01764 12.2977 6.13487 12.321 6.24425 12.3663C6.35364 12.4116 6.45302 12.478 6.53674 12.5618L10.1 16.125L19.0632 7.16326C19.2323 6.99419 19.4616 6.8992 19.7007 6.8992C19.9399 6.8992 20.1692 6.99419 20.3382 7.16326C20.5073 7.33234 20.6023 7.56165 20.6023 7.80076C20.6023 8.03987 20.5073 8.26919 20.3382 8.43826L20.3367 8.43676Z" fill="black"/>
</svg>
